# xmcd
#
# Track frame offsets:
#	150
#	19391
#	38119
#	60581
#	85421
#	106753
#	125223
#	144205
#	178953
#	200056
#	222967
#	244609
#
# Disc length: 3496 seconds
#
# Revision: 1
# Processed by: cddbd v1.5.2PL0 Copyright (c) Steve Scherf et al.
# Submitted via: audiograbber 1.83.01
#
DISCID=b00da60c
DTITLE=Kevin Bennett - KB Live - The Rancom Tape
DYEAR=2013
DGENRE=Country
TTITLE0=Can't Work No Longer
TTITLE1=2003
TTITLE2=Dark End Of The Street
TTITLE3=When I Paint My Masterpiece
TTITLE4=Tear Stained Eye
TTITLE5=Wrote A Song For Everyone
TTITLE6=Get Back On It
TTITLE7=Don't Look Back At Me/Yil Lull
TTITLE8=Where You Been?
TTITLE9=Ballad Of KB
TTITLE10=Paul Kelly's Blues (The River)
TTITLE11=Grandma's Hands
EXTD=
EXTT0=
EXTT1=
EXTT2=
EXTT3=
EXTT4=
EXTT5=
EXTT6=
EXTT7=
EXTT8=
EXTT9=
EXTT10=
EXTT11=
PLAYORDER=
